<?xml version="1.0" standalone="no"?>
<!DOCTYPE svg PUBLIC "-//W3C//DTD SVG 20010904//EN"
 "http://www.w3.org/TR/2001/REC-SVG-20010904/DTD/svg10.dtd">
<svg version="1.0" xmlns="http://www.w3.org/2000/svg"
 width="360.000000pt" height="360.000000pt" viewBox="0 0 360.000000 360.000000"
 preserveAspectRatio="xMidYMid meet">
<metadata>
Created by potrace 1.14, written by Peter Selinger 2001-2017
</metadata>
<g transform="translate(0.000000,360.000000) scale(0.100000,-0.100000)"
fill="#000000" stroke="none">
<path d="M1567 3575 c-403 -55 -766 -240 -1052 -537 -335 -347 -505 -768 -505
-1253 0 -722 439 -1370 1118 -1652 327 -136 705 -169 1057 -92 439 96 838 366
1096 741 311 454 397 1017 235 1543 -123 401 -404 765 -766 992 -152 94 -362
184 -527 223 -204 48 -456 62 -656 35z m600 -858 c26 -26 28 -34 33 -135 l5
-107 305 -5 c338 -6 337 -5 391 -75 l26 -34 6 -332 c11 -512 9 -1033 -4 -1066
-14 -38 -67 -92 -106 -109 -27 -12 -203 -14 -1023 -14 -954 0 -992 1 -1028 19
-47 24 -77 56 -97 105 -14 34 -15 107 -10 699 3 364 8 672 11 684 6 32 51 81
95 103 35 19 60 20 334 20 l295 0 0 89 c0 106 10 139 53 169 32 22 33 23 359
20 l328 -3 27 -28z"/>
<path d="M1497 2653 c-4 -3 -7 -57 -7 -120 l0 -113 310 0 311 0 -3 118 -3 117
-301 3 c-165 1 -303 -1 -307 -5z"/>
<path d="M830 2379 c-14 -6 -37 -22 -52 -36 -24 -22 -28 -35 -28 -78 0 -46 6
-60 49 -121 111 -158 367 -338 579 -408 87 -28 254 -61 274 -53 8 2 15 19 16
37 7 97 111 149 202 102 39 -21 70 -72 70 -114 0 -34 6 -35 137 -9 189 37 334
103 503 229 115 86 219 190 250 252 43 85 16 179 -58 200 -50 13 -1907 13
-1942 -1z"/>
<path d="M750 1648 l0 -438 1050 0 1050 0 2 435 c2 239 1 435 -2 435 -3 0 -30
-25 -60 -56 -224 -231 -486 -364 -802 -409 l-48 -6 0 -42 c0 -112 -100 -177
-205 -133 -41 17 -62 55 -67 121 -5 57 5 51 -153 80 -246 44 -474 167 -677
366 l-88 85 0 -438z"/>
<path d="M750 1080 c0 -81 11 -110 50 -133 26 -16 111 -17 1000 -17 696 0 978
3 993 11 45 23 57 49 57 132 l0 77 -1050 0 -1050 0 0 -70z"/>
</g>
</svg>
